<?xml version="1.0" encoding="utf-8"?>
<!-- Generator: Adobe Illustrator 19.0.0, SVG Export Plug-In . SVG Version: 6.00 Build 0)  -->
<svg version="1.1" id="Capa_1" xmlns="http://www.w3.org/2000/svg" xmlns:xlink="http://www.w3.org/1999/xlink" x="0px" y="0px"
	 viewBox="-26 150.5 541.4 541.4" style="enable-background:new -26 150.5 541.4 541.4;" xml:space="preserve">
<style type="text/css">
	.st0{fill:#9F9F9F;}
</style>
<g>
	<circle class="st0" cx="66.3" cy="412.2" r="15.8"/>
	<circle class="st0" cx="154.3" cy="412.2" r="15.8"/>
	<circle class="st0" cx="242.4" cy="412.2" r="15.8"/>
	<path id="XMLID_1_" class="st0" d="M-0.7,413.4v-2.3c0-37,22.4-67.2,50-67.2h235.9c2.4,0,4.9,0.3,7.7,0.9l0.3,0.1l0.3-0.2
		c8.6-6.9,18.4-10.5,28.4-10.5c3.6,0,7.2,0.5,10.7,1.4l3.4,0.9l-2.7-3c-13.5-15.1-30.6-23.5-48.1-23.5H49.3
		C7.8,310-26,355.4-26,411.1v2.3c0,55.8,33.8,101.1,75.3,101.1h206.6v-33.9H49.3C21.7,480.5-0.7,450.4-0.7,413.4z"/>
	<path id="XMLID_3_" class="st0" d="M404,436.9h-8.3v-42.1c0-29.8-25.7-54-57.4-54c-31.7,0-57.4,24.2-57.4,54v42.1c0,0-3.7,0-8.3,0
		c-4.6,0-8.3,5-8.3,11.3v65.9c0,6.2,5.1,11.3,11.3,11.3h125.5c6.2,0,11.3-5.1,11.3-11.3v-65.9C412.3,442,408.6,436.9,404,436.9z
		 M338.3,492.4c-7.8,0-14.1-6.4-14.1-14.2c0-7.8,6.3-14.1,14.1-14.1c7.8,0,14.1,6.3,14.1,14.1C352.4,486,346.1,492.4,338.3,492.4z
		 M376.9,436.9h-77.2v-42.1c0-19.4,17.3-35.1,38.6-35.1c21.3,0,38.6,15.8,38.6,35.1V436.9z"/>
</g>
</svg>
